<?xml version="1.0" encoding="utf-8"?>
<!-- Generator: Adobe Illustrator 16.0.0, SVG Export Plug-In . SVG Version: 6.00 Build 0)  -->
<!DOCTYPE svg PUBLIC "-//W3C//DTD SVG 1.1//EN" "http://www.w3.org/Graphics/SVG/1.1/DTD/svg11.dtd">
<svg version="1.1" id="Layer_1" xmlns="http://www.w3.org/2000/svg" xmlns:xlink="http://www.w3.org/1999/xlink" x="0px" y="0px"
	 width="135.75px" height="82px" viewBox="0 0 135.75 82" enable-background="new 0 0 135.75 82" xml:space="preserve">
<circle fill="#FFFFFF" cx="18.25" cy="57.584" r="11.458"/>
<circle fill="#FFFFFF" cx="49.25" cy="56.584" r="12.458"/>
<circle fill="#FFFFFF" cx="84.25" cy="56.584" r="12.458"/>
<g id="Layer_1_1_">
</g>
<path d="M17.118,6.165c-9.016,0-16.35,7.334-16.35,16.35c0,9.015,7.334,16.349,16.35,16.349c9.016,0,16.351-7.334,16.351-16.349
	C33.469,13.5,26.134,6.165,17.118,6.165z M20.884,22.514h-2.418v8.77h-3.622v-8.77h-1.811v-3.022h1.811v-1.813
	c0-2.466,1.022-3.932,3.925-3.932h2.418v3.022h-1.511c-1.13,0-1.206,0.423-1.206,1.211l-0.004,1.512h2.738L20.884,22.514z"/>
<path fill="#3A589B" d="M14.844,65.924h3.622v-8.77h2.418l0.32-3.021h-2.738l0.004-1.513c0-0.788,0.076-1.211,1.206-1.211h1.511
	v-3.021h-2.418c-2.903,0-3.925,1.467-3.925,3.932v1.812h-1.811v3.022h1.811V65.924z M17.118,73.271C8.217,73.271,1,66.059,1,57.154
	c0-8.903,7.217-16.118,16.118-16.118c8.902,0,16.119,7.218,16.119,16.118C33.237,66.057,26.021,73.271,17.118,73.271z"/>
<path fill="#696A6A" d="M88.057,52.783v-0.004c0.271,0,0.539,0.007,0.812-0.002c0.348-0.006,0.63-0.308,0.63-0.65
	c0-0.52,0-1.037,0-1.557c0-0.369-0.294-0.666-0.665-0.666c-0.52,0-1.029-0.002-1.549,0c-0.369,0-0.665,0.297-0.665,0.668
	c0,0.515-0.002,1.027,0.002,1.539c0,0.076,0.017,0.158,0.039,0.229c0.093,0.271,0.344,0.439,0.647,0.441
	C87.559,52.785,87.807,52.783,88.057,52.783z M83.072,53.447c-1.818,0-3.297,1.466-3.323,3.272
	c-0.024,1.859,1.463,3.335,3.246,3.373c1.858,0.037,3.358-1.444,3.397-3.248C86.434,54.984,84.934,53.447,83.072,53.447z
	 M76.646,55.225v0.045c0,2.426,0,4.854,0,7.279c0,0.35,0.301,0.646,0.648,0.646c3.852,0.002,7.696,0.002,11.544,0
	c0.354,0,0.654-0.299,0.654-0.649c0-2.424,0-4.851,0-7.271v-0.049H87.93c0.223,0.705,0.288,1.424,0.2,2.153
	c-0.086,0.729-0.319,1.413-0.707,2.043c-0.385,0.634-0.883,1.153-1.491,1.568c-1.582,1.075-3.666,1.173-5.348,0.229
	c-0.852-0.477-1.518-1.14-1.979-1.995c-0.692-1.273-0.803-2.615-0.397-4.005C77.688,55.225,77.171,55.225,76.646,55.225z
	 M89.634,64.975c0.085-0.016,0.171-0.026,0.255-0.045c0.67-0.145,1.217-0.701,1.348-1.373c0.017-0.074,0.023-0.146,0.037-0.222
	V50.212c-0.012-0.069-0.021-0.146-0.037-0.216c-0.143-0.732-0.75-1.305-1.489-1.405c-0.031-0.005-0.062-0.012-0.095-0.019H76.497
	c-0.08,0.016-0.158,0.025-0.237,0.045c-0.729,0.164-1.265,0.749-1.365,1.484c-0.004,0.028-0.014,0.062-0.019,0.094v13.156
	c0.017,0.082,0.024,0.166,0.047,0.248c0.16,0.713,0.769,1.264,1.488,1.354c0.032,0.005,0.065,0.012,0.104,0.02h13.118V64.975
	L89.634,64.975z M83.072,72.896c-8.906,0-16.125-7.22-16.125-16.125c0-8.904,7.219-16.125,16.125-16.125s16.125,7.22,16.125,16.125
	C99.197,65.68,91.979,72.896,83.072,72.896z"/>
<path d="M50.327,6.165c-9.016,0-16.35,7.334-16.35,16.35c0,9.015,7.334,16.349,16.35,16.349c9.016,0,16.351-7.334,16.351-16.349
	C66.678,13.5,59.343,6.165,50.327,6.165z M57.933,19.5c-0.067,0.112-0.414,0.509-0.784,0.872c-0.626,0.621-0.66,0.69-0.66,1.211
	c0,0.802-0.381,2.48-0.763,3.396c-0.706,1.722-2.217,3.499-3.729,4.394c-2.128,1.258-4.962,1.573-7.348,0.838
	c-0.795-0.249-2.161-0.883-2.161-0.996c0-0.034,0.415-0.08,0.918-0.091c1.054-0.024,2.107-0.317,3.003-0.838l0.604-0.363
	l-0.693-0.237c-0.987-0.338-1.87-1.121-2.095-1.856c-0.067-0.238-0.045-0.249,0.583-0.249l0.648-0.012l-0.549-0.26
	c-0.65-0.328-1.243-0.883-1.535-1.45c-0.212-0.408-0.48-1.439-0.402-1.517c0.023-0.033,0.256,0.034,0.526,0.124
	c0.773,0.283,0.873,0.216,0.425-0.261c-0.838-0.859-1.096-2.139-0.694-3.352l0.191-0.543l0.739,0.736
	c1.512,1.484,3.293,2.367,5.33,2.628l0.562,0.067l-0.034-0.555c-0.101-1.439,0.784-2.751,2.184-3.261
	c0.516-0.182,1.39-0.204,1.962-0.046c0.223,0.068,0.649,0.295,0.952,0.499l0.548,0.375l0.604-0.193
	c0.336-0.103,0.785-0.273,0.986-0.386c0.19-0.102,0.358-0.157,0.358-0.124c0,0.193-0.414,0.85-0.763,1.212
	c-0.47,0.51-0.336,0.554,0.617,0.214C58.035,19.284,58.045,19.284,57.933,19.5z"/>
<path fill="#78CDF0" d="M50.327,72.363c-8.753,0-15.85-7.096-15.85-15.85c0-8.755,7.097-15.852,15.85-15.852
	c8.754,0,15.851,7.097,15.851,15.852C66.178,65.268,59.081,72.363,50.327,72.363z"/>
<path fill="#FFFFFF" d="M52.199,51.925c-1.4,0.511-2.285,1.822-2.184,3.263l0.034,0.557l-0.562-0.067
	c-2.037-0.261-3.818-1.145-5.33-2.628l-0.739-0.732l-0.191,0.543c-0.402,1.213-0.144,2.492,0.694,3.353
	c0.448,0.478,0.348,0.544-0.425,0.261c-0.27-0.09-0.503-0.156-0.526-0.123c-0.078,0.077,0.19,1.108,0.402,1.52
	c0.292,0.564,0.885,1.12,1.535,1.447l0.549,0.262l-0.648,0.013c-0.628,0-0.65,0.013-0.583,0.249c0.225,0.733,1.108,1.52,2.095,1.854
	l0.693,0.236l-0.604,0.363c-0.896,0.521-1.949,0.812-3.003,0.838c-0.503,0.012-0.918,0.059-0.918,0.092
	c0,0.112,1.366,0.746,2.161,0.995c2.386,0.734,5.22,0.421,7.348-0.838c1.512-0.896,3.023-2.672,3.729-4.396
	c0.382-0.916,0.763-2.594,0.763-3.396c0-0.521,0.034-0.59,0.66-1.211c0.37-0.361,0.717-0.762,0.784-0.872
	c0.112-0.216,0.102-0.216-0.47-0.022c-0.953,0.341-1.087,0.295-0.617-0.215c0.349-0.36,0.763-1.021,0.763-1.211
	c0-0.033-0.168,0.021-0.358,0.123c-0.201,0.112-0.65,0.282-0.986,0.387l-0.604,0.19l-0.548-0.374
	c-0.303-0.203-0.729-0.431-0.952-0.499C53.589,51.723,52.715,51.743,52.199,51.925z"/>
<g>
	<path d="M82.995,25.969c1.858,0.039,3.358-1.444,3.397-3.248c0.041-1.861-1.461-3.397-3.32-3.397c-1.818,0-3.297,1.464-3.323,3.273
		C79.725,24.457,81.212,25.93,82.995,25.969z"/>
	<path d="M86.658,18.218c0.089,0.272,0.34,0.44,0.648,0.442c0.25,0,0.5-0.002,0.748-0.002v-0.003c0.271,0,0.541,0.006,0.812-0.001
		c0.348-0.006,0.63-0.306,0.63-0.652c0-0.519,0-1.037,0-1.556c0-0.37-0.294-0.665-0.665-0.665c-0.517,0-1.031-0.002-1.55,0
		c-0.368,0-0.664,0.295-0.664,0.668c0,0.514-0.002,1.027,0.002,1.54C86.619,18.065,86.634,18.146,86.658,18.218z"/>
	<path d="M83.493,6.165c-9.016,0-16.351,7.334-16.351,16.35c0,9.015,7.335,16.349,16.351,16.349s16.351-7.334,16.351-16.349
		C99.844,13.5,92.509,6.165,83.493,6.165z M91.271,29.209c-0.016,0.073-0.022,0.146-0.037,0.22c-0.131,0.673-0.678,1.23-1.348,1.374
		c-0.084,0.018-0.173,0.03-0.257,0.045H76.514c-0.037-0.006-0.07-0.013-0.105-0.018c-0.723-0.09-1.328-0.642-1.488-1.354
		c-0.021-0.082-0.031-0.166-0.047-0.248V16.071c0.005-0.031,0.012-0.063,0.018-0.093c0.102-0.737,0.639-1.321,1.366-1.486
		c0.079-0.018,0.157-0.029,0.237-0.044h13.158c0.029,0.006,0.06,0.013,0.091,0.018c0.743,0.101,1.347,0.672,1.493,1.405
		c0.014,0.071,0.025,0.145,0.035,0.216V29.209z"/>
	<path d="M89.496,21.1h-1.564c0.221,0.705,0.289,1.424,0.2,2.157c-0.086,0.731-0.321,1.413-0.707,2.043
		c-0.385,0.63-0.883,1.153-1.491,1.568c-1.584,1.078-3.666,1.172-5.348,0.23c-0.848-0.475-1.514-1.139-1.979-1.995
		c-0.691-1.276-0.799-2.615-0.396-4.005c-0.521,0-1.04,0-1.562,0v0.044c0,2.426-0.002,4.854,0,7.281c0,0.348,0.299,0.648,0.65,0.648
		c3.848,0.001,7.696,0.001,11.545,0c0.352,0,0.653-0.299,0.653-0.651c0-2.423,0-4.849,0-7.271h-0.001V21.1z"/>
</g>
<path fill="#C8232C" d="M117.152,39.946c-8.99,0-16.276,7.289-16.276,16.277c0,8.99,7.286,16.278,16.276,16.278
	s16.277-7.288,16.277-16.278C133.43,47.234,126.143,39.946,117.152,39.946z M118.775,61.779c-1.303,0-2.527-0.686-2.947-1.459
	c0,0-0.702,2.693-0.852,3.213c-0.521,1.836-2.058,3.676-2.179,3.824c-0.083,0.104-0.269,0.072-0.286-0.066
	c-0.033-0.232-0.427-2.551,0.034-4.438l1.554-6.371c0,0-0.385-0.746-0.385-1.85c0-1.732,1.036-3.025,2.327-3.025
	c1.099,0,1.63,0.801,1.63,1.754c0,1.07-0.706,2.669-1.066,4.147c-0.304,1.242,0.643,2.251,1.903,2.251
	c2.287,0,3.828-2.843,3.828-6.212c0-2.562-1.778-4.479-5.021-4.479c-3.662,0-5.943,2.646-5.943,5.599
	c0,1.019,0.309,1.737,0.797,2.292c0.223,0.257,0.254,0.359,0.172,0.65l-0.246,0.938c-0.078,0.299-0.328,0.402-0.604,0.295
	c-1.688-0.668-2.473-2.456-2.473-4.468c0-3.319,2.891-7.301,8.627-7.301c4.606,0,7.64,3.229,7.642,6.696
	C125.288,58.352,122.654,61.779,118.775,61.779z"/>
<path fill="none" stroke="#000000" stroke-miterlimit="10" d="M117.152,5.946c-8.99,0-16.276,7.289-16.276,16.277
	c0,8.99,7.286,16.278,16.276,16.278s16.277-7.288,16.277-16.278C133.43,13.235,126.143,5.946,117.152,5.946z"/>
<path d="M118.609,27.779c-1.303,0-2.527-0.685-2.947-1.459c0,0-0.702,2.693-0.852,3.213c-0.521,1.836-2.058,3.676-2.179,3.825
	c-0.083,0.104-0.269,0.072-0.286-0.067c-0.033-0.232-0.427-2.551,0.034-4.438l1.554-6.37c0,0-0.385-0.746-0.385-1.85
	c0-1.733,1.036-3.025,2.327-3.025c1.099,0,1.63,0.8,1.63,1.754c0,1.069-0.706,2.668-1.066,4.147
	c-0.303,1.242,0.643,2.251,1.903,2.251c2.287,0,3.828-2.843,3.828-6.212c0-2.562-1.778-4.479-5.021-4.479
	c-3.662,0-5.943,2.645-5.943,5.598c0,1.018,0.309,1.737,0.797,2.292c0.223,0.257,0.254,0.359,0.172,0.65l-0.246,0.938
	c-0.078,0.299-0.328,0.402-0.604,0.295c-1.688-0.668-2.473-2.456-2.473-4.468c0-3.319,2.891-7.301,8.627-7.301
	c4.606,0,7.64,3.229,7.642,6.696C125.122,24.351,122.488,27.779,118.609,27.779z"/>
</svg>
